<svg 
 xmlns="http://www.w3.org/2000/svg"
 xmlns:xlink="http://www.w3.org/1999/xlink"
 width="121px" height="28px">
<path fill-rule="evenodd"  fill="rgb(29, 203, 164)"
 d="M118.352,23.203 C117.086,23.203 115.922,24.221 115.922,25.448 C115.922,26.774 117.086,27.797 118.352,27.797 C119.621,27.797 120.785,26.774 120.785,25.448 C120.785,24.221 119.621,23.203 118.352,23.203 M5.952,2.466 C5.952,2.466 13.675,17.467 13.675,17.467 C14.143,18.371 14.547,19.237 14.888,20.062 C15.225,20.892 15.593,21.731 15.992,22.592 C15.992,22.592 16.133,22.592 16.133,22.592 C16.039,21.573 15.975,20.486 15.939,19.333 C15.905,18.180 15.889,17.015 15.889,15.838 C15.889,15.838 15.889,2.466 15.889,2.466 C15.889,2.466 19.890,2.466 19.890,2.466 C19.890,2.466 19.890,27.547 19.890,27.547 C19.890,27.547 14.589,27.547 14.589,27.547 C14.589,27.547 7.250,13.460 7.250,13.460 C6.854,12.737 6.438,11.911 6.005,10.982 C5.573,10.056 5.155,9.106 4.759,8.134 C4.759,8.134 4.618,8.134 4.618,8.134 C4.712,9.310 4.781,10.465 4.828,11.596 C4.876,12.726 4.899,13.848 4.899,14.957 C4.899,14.957 4.899,27.547 4.899,27.547 C4.899,27.547 0.863,27.547 0.863,27.547 C0.863,27.547 0.863,2.466 0.863,2.466 C0.863,2.466 5.952,2.466 5.952,2.466 ZM23.782,16.802 C23.782,14.085 24.510,12.048 25.960,10.699 C27.409,9.350 29.400,8.675 31.928,8.675 C36.959,8.675 39.474,11.413 39.474,16.885 C39.474,16.885 39.474,19.098 39.474,19.098 C39.474,19.098 28.065,19.098 28.065,19.098 C28.065,19.098 28.065,20.182 28.065,20.182 C28.065,23.031 29.353,24.456 31.928,24.456 C33.096,24.456 33.940,24.238 34.456,23.799 C34.969,23.357 35.249,22.819 35.299,22.184 C35.299,22.184 39.230,22.184 39.230,22.184 C38.971,23.949 38.281,25.337 37.158,26.341 C36.034,27.350 34.324,27.851 32.033,27.851 C26.533,27.851 23.782,25.143 23.782,19.724 C23.782,19.724 23.782,16.802 23.782,16.802 ZM35.404,16.075 C35.404,14.582 35.128,13.541 34.579,12.952 C34.028,12.364 33.121,12.069 31.856,12.069 C30.524,12.069 29.563,12.398 28.979,13.054 C28.394,13.711 28.101,14.715 28.101,16.075 C28.101,16.075 35.404,16.075 35.404,16.075 ZM48.019,4.198 C48.019,4.198 48.019,9.018 48.019,9.018 C48.019,9.018 51.882,9.018 51.882,9.018 C51.882,9.018 51.882,11.933 51.882,11.933 C51.882,11.933 48.019,11.933 48.019,11.933 C48.019,11.933 48.019,23.609 48.019,23.609 C48.019,24.357 48.347,24.729 49.001,24.729 C49.612,24.729 50.132,24.672 50.563,24.561 C50.996,24.447 51.518,24.267 52.127,24.016 C52.127,24.016 53.321,26.868 53.321,26.868 C52.758,27.163 50.981,27.851 48.967,27.851 C45.481,27.851 43.737,26.212 43.737,22.932 C43.737,22.932 43.737,11.933 43.737,11.933 C43.737,11.933 41.805,11.933 41.805,11.933 C41.805,11.933 41.805,9.018 41.805,9.018 C41.805,9.018 43.737,9.018 43.737,9.018 C43.737,9.018 43.737,5.640 43.737,5.640 C43.737,5.640 48.019,4.198 48.019,4.198 ZM60.361,27.547 C60.361,27.547 56.078,27.547 56.078,27.547 C56.078,27.547 56.078,10.546 56.078,10.546 C57.273,9.869 60.268,8.327 66.015,8.779 C66.015,8.779 66.015,12.479 66.015,12.479 C62.855,12.280 60.876,12.763 60.361,12.919 C60.361,12.919 60.361,27.547 60.361,27.547 ZM97.363,13.799 C97.632,11.872 98.383,8.709 104.945,8.709 C110.826,8.709 111.637,11.540 111.896,12.375 C112.153,13.214 112.282,14.208 112.282,15.362 C112.282,15.362 112.282,26.360 112.282,26.360 C109.875,27.236 108.722,27.851 103.085,27.851 C100.977,27.851 99.417,27.405 98.397,26.511 C97.380,25.616 96.870,24.189 96.870,22.218 C96.870,22.218 96.870,21.436 96.870,21.436 C96.870,19.537 97.380,18.191 98.397,17.400 C99.417,16.610 100.977,16.211 103.085,16.211 C104.558,16.211 105.675,16.267 106.437,16.379 C107.196,16.495 107.742,16.610 108.070,16.720 C108.070,16.720 108.070,14.751 108.070,14.751 C108.070,13.847 107.818,13.163 107.314,12.699 C106.812,12.234 105.986,12.004 104.840,12.004 C103.785,12.004 102.961,12.134 102.363,12.393 C101.768,12.651 101.410,13.121 101.293,13.799 C101.293,13.799 97.363,13.799 97.363,13.799 ZM101.117,22.796 C101.117,24.037 101.761,24.660 103.049,24.660 C104.525,24.660 105.634,24.618 106.384,24.527 C107.132,24.437 107.695,24.312 108.070,24.153 C108.070,24.153 108.070,19.674 108.070,19.674 C107.601,19.537 106.982,19.424 106.207,19.333 C105.435,19.243 104.382,19.199 103.049,19.199 C101.761,19.199 101.117,19.738 101.117,20.829 C101.117,20.829 101.117,22.796 101.117,22.796 ZM73.416,27.547 C73.416,27.547 69.135,27.547 69.135,27.547 C69.135,27.547 69.135,9.017 69.135,9.017 C69.135,9.017 73.416,9.017 73.416,9.017 C73.416,9.017 73.416,27.547 73.416,27.547 ZM71.274,1.364 C70.008,1.364 68.844,2.383 68.844,3.608 C68.844,4.936 70.008,5.959 71.274,5.959 C72.542,5.959 73.706,4.936 73.706,3.608 C73.706,2.383 72.542,1.364 71.274,1.364 M93.556,23.643 C93.332,23.057 92.988,22.444 92.520,21.811 C92.520,21.811 88.716,16.947 88.484,16.720 C88.484,16.720 88.484,16.621 88.484,16.621 C88.716,16.485 90.416,15.170 91.185,14.515 C92.051,13.788 92.671,13.036 93.048,12.255 C93.422,11.477 93.609,10.613 93.609,9.661 C93.609,9.661 93.609,9.051 93.609,9.051 C93.609,9.051 89.466,9.051 89.466,9.051 C89.466,9.051 89.466,10.067 89.466,10.067 C89.466,10.859 89.175,11.506 88.590,12.004 C88.590,12.004 84.343,15.701 84.343,15.701 C83.663,16.289 83.153,16.737 82.814,17.043 C82.473,17.349 82.212,17.613 82.024,17.841 C82.024,17.841 82.024,0.837 82.024,0.837 C82.024,0.837 77.740,2.230 77.740,2.230 C77.740,2.230 77.740,27.546 77.740,27.546 C77.740,27.546 82.024,27.546 82.024,27.546 C82.024,27.546 82.024,21.872 82.024,21.872 C82.599,21.501 83.176,21.093 83.762,20.622 C84.381,20.124 85.020,19.582 85.676,18.995 C85.745,19.221 85.945,19.549 86.271,19.982 C86.597,20.410 87.030,21.019 87.571,21.811 C87.571,21.811 88.974,23.916 88.974,23.916 C89.441,24.573 89.677,25.273 89.677,26.021 C89.677,26.021 89.677,27.546 89.677,27.546 C89.677,27.546 93.889,27.546 93.889,27.546 C93.889,27.546 93.889,25.747 93.889,25.747 C93.889,24.933 93.778,24.234 93.556,23.643 "/>
</svg>