<svg 
 xmlns="http://www.w3.org/2000/svg"
 xmlns:xlink="http://www.w3.org/1999/xlink"
 width="127px" height="170px">
<path fill-rule="evenodd"  stroke="rgb(245, 89, 89)" stroke-width="4px" stroke-linecap="round" stroke-linejoin="round" fill="none"
 d="M10.000,4.000 C10.000,4.000 83.187,4.000 83.187,4.000 C83.187,4.000 121.000,43.693 121.000,43.693 C121.000,43.693 121.000,158.000 121.000,158.000 C121.000,161.314 118.314,164.000 115.000,164.000 C115.000,164.000 10.000,164.000 10.000,164.000 C6.686,164.000 4.000,161.314 4.000,158.000 C4.000,158.000 4.000,10.000 4.000,10.000 C4.000,6.686 6.686,4.000 10.000,4.000 Z"/>
<path fill-rule="evenodd"  stroke="rgb(245, 89, 89)" stroke-width="4px" stroke-linecap="round" stroke-linejoin="round" fill="none"
 d="M84.000,6.000 C84.000,6.000 84.000,44.000 84.000,44.000 C84.000,44.000 121.000,44.000 121.000,44.000 "/>
<path fill-rule="evenodd"  stroke="rgb(245, 89, 89)" stroke-width="4px" stroke-linecap="round" stroke-linejoin="round" fill="none"
 d="M48.000,70.000 C48.000,70.000 77.000,99.000 77.000,99.000 M77.000,70.000 C77.000,70.000 48.000,99.000 48.000,99.000 "/>
</svg>