<svg 
 xmlns="http://www.w3.org/2000/svg"
 xmlns:xlink="http://www.w3.org/1999/xlink"
 width="127px" height="170px">
<path fill-rule="evenodd"  stroke="rgb(29, 203, 164)" stroke-width="4px" stroke-linecap="round" stroke-linejoin="round" fill="none"
 d="M50.000,82.000 C50.000,82.000 75.000,82.000 75.000,82.000 C76.105,82.000 77.000,82.895 77.000,84.000 C77.000,84.000 77.000,106.000 77.000,106.000 C77.000,107.105 76.105,108.000 75.000,108.000 C75.000,108.000 50.000,108.000 50.000,108.000 C48.895,108.000 48.000,107.105 48.000,106.000 C48.000,106.000 48.000,84.000 48.000,84.000 C48.000,82.895 48.895,82.000 50.000,82.000 Z"/>
<path fill-rule="evenodd"  stroke="rgb(29, 203, 164)" stroke-width="4px" stroke-linecap="round" stroke-linejoin="round" fill="none"
 d="M71.000,81.000 C71.000,81.000 71.000,77.194 71.000,72.500 C71.000,67.806 67.194,64.000 62.500,64.000 C57.806,64.000 54.000,67.806 54.000,72.500 C54.000,77.194 54.000,81.000 54.000,81.000 "/>
<path fill-rule="evenodd"  fill="rgb(29, 203, 164)"
 d="M62.500,90.000 C64.433,90.000 66.000,91.567 66.000,93.500 C66.000,95.433 64.433,97.000 62.500,97.000 C60.567,97.000 59.000,95.433 59.000,93.500 C59.000,91.567 60.567,90.000 62.500,90.000 Z"/>
<path fill-rule="evenodd"  stroke="rgb(29, 203, 164)" stroke-width="3px" stroke-linecap="round" stroke-linejoin="round" fill="rgb(29, 203, 164)"
 d="M64.000,98.000 C64.000,98.000 64.000,96.000 64.000,96.000 "/>
<path fill-rule="evenodd"  stroke="rgb(29, 203, 164)" stroke-width="4px" stroke-linecap="round" stroke-linejoin="round" fill="none"
 d="M10.000,4.000 C10.000,4.000 83.187,4.000 83.187,4.000 C83.187,4.000 121.000,43.693 121.000,43.693 C121.000,43.693 121.000,158.000 121.000,158.000 C121.000,161.314 118.314,164.000 115.000,164.000 C115.000,164.000 10.000,164.000 10.000,164.000 C6.686,164.000 4.000,161.314 4.000,158.000 C4.000,158.000 4.000,10.000 4.000,10.000 C4.000,6.686 6.686,4.000 10.000,4.000 Z"/>
<path fill-rule="evenodd"  stroke="rgb(29, 203, 164)" stroke-width="4px" stroke-linecap="round" stroke-linejoin="round" fill="none"
 d="M84.000,6.000 C84.000,6.000 84.000,44.000 84.000,44.000 C84.000,44.000 121.000,44.000 121.000,44.000 "/>
</svg>