<svg 
 xmlns="http://www.w3.org/2000/svg"
 xmlns:xlink="http://www.w3.org/1999/xlink"
 width="121px" height="110px">
<path fill-rule="evenodd"  stroke="rgb(29, 203, 164)" stroke-width="2px" stroke-linecap="round" stroke-linejoin="round" fill="none"
 d="M6.000,17.000 C6.000,17.000 114.000,17.000 114.000,17.000 C116.209,17.000 118.000,18.791 118.000,21.000 C118.000,21.000 118.000,103.000 118.000,103.000 C118.000,105.209 116.209,107.000 114.000,107.000 C114.000,107.000 6.000,107.000 6.000,107.000 C3.791,107.000 2.000,105.209 2.000,103.000 C2.000,103.000 2.000,21.000 2.000,21.000 C2.000,18.791 3.791,17.000 6.000,17.000 Z"/>
<path fill-rule="evenodd"  stroke="rgb(29, 203, 164)" stroke-width="2px" stroke-linecap="round" stroke-linejoin="round" fill="none"
 d="M118.000,67.000 C118.000,72.523 113.523,77.000 108.000,77.000 C108.000,77.000 99.752,77.000 99.752,77.000 M88.559,77.000 C73.650,77.000 33.496,77.000 33.496,77.000 M22.072,77.000 C22.072,77.000 12.000,77.000 12.000,77.000 C6.477,77.000 2.000,72.523 2.000,67.000 "/>
<path fill-rule="evenodd"  stroke="rgb(29, 203, 164)" stroke-width="2px" stroke-linecap="round" stroke-linejoin="round" fill="none"
 d="M89.000,87.000 C89.000,87.000 89.000,67.000 89.000,67.000 C89.000,67.000 99.000,67.000 99.000,67.000 C99.000,67.000 99.000,87.000 99.000,87.000 C99.000,87.000 89.000,87.000 89.000,87.000 ZM23.000,67.000 C23.000,67.000 33.000,67.000 33.000,67.000 C33.000,67.000 33.000,87.000 33.000,87.000 C33.000,87.000 23.000,87.000 23.000,87.000 C23.000,87.000 23.000,67.000 23.000,67.000 Z"/>
<path fill-rule="evenodd"  stroke="rgb(29, 203, 164)" stroke-width="2px" stroke-linecap="round" stroke-linejoin="round" fill="none"
 d="M40.000,16.000 C40.000,16.000 40.000,6.000 40.000,6.000 C40.000,3.791 41.791,2.000 44.000,2.000 C44.000,2.000 76.000,2.000 76.000,2.000 C78.209,2.000 80.000,3.791 80.000,6.000 C80.000,6.000 80.000,16.000 80.000,16.000 "/>
<path fill-rule="evenodd"  stroke="rgb(29, 203, 164)" stroke-width="2px" stroke-linecap="round" stroke-linejoin="round" fill="none"
 d="M115.000,27.000 C115.000,27.000 109.000,27.000 109.000,27.000 M100.000,27.000 C100.000,27.000 94.000,27.000 94.000,27.000 M85.000,27.000 C85.000,27.000 79.000,27.000 79.000,27.000 M70.000,27.000 C70.000,27.000 64.000,27.000 64.000,27.000 M55.000,27.000 C55.000,27.000 49.000,27.000 49.000,27.000 M40.000,27.000 C40.000,27.000 34.000,27.000 34.000,27.000 M25.000,27.000 C25.000,27.000 19.000,27.000 19.000,27.000 M10.000,27.000 C10.000,27.000 4.000,27.000 4.000,27.000 "/>
</svg>