<svg 
 xmlns="http://www.w3.org/2000/svg"
 xmlns:xlink="http://www.w3.org/1999/xlink"
 width="121px" height="122px">
<path fill-rule="evenodd"  stroke="rgb(29, 203, 164)" stroke-width="2px" stroke-linecap="round" stroke-linejoin="round" fill="none"
 d="M38.489,116.826 C36.425,118.419 33.568,118.426 31.498,116.841 C23.003,110.338 2.000,92.079 2.000,70.518 C2.000,52.001 16.775,36.989 35.000,36.989 C53.225,36.989 68.000,52.001 68.000,70.518 C68.000,91.886 46.975,110.274 38.489,116.826 ZM35.500,60.003 C29.704,60.003 25.005,64.700 25.005,70.495 C25.005,76.290 29.704,80.988 35.500,80.988 C41.296,80.988 45.995,76.290 45.995,70.495 C45.995,64.700 41.296,60.003 35.500,60.003 Z"/>
<path fill-rule="evenodd"  stroke="rgb(29, 203, 164)" stroke-width="2px" stroke-linecap="round" stroke-linejoin="round" fill="none"
 d="M101.903,45.340 C100.777,46.205 99.219,46.209 98.090,45.348 C93.456,41.817 82.000,31.904 82.000,20.198 C82.000,10.144 90.059,1.994 100.000,1.994 C109.941,1.994 118.000,10.144 118.000,20.198 C118.000,31.799 106.532,41.783 101.903,45.340 ZM99.993,14.998 C97.228,14.998 94.987,17.236 94.987,19.996 C94.987,22.756 97.228,24.994 99.993,24.994 C102.757,24.994 104.998,22.756 104.998,19.996 C104.998,17.236 102.757,14.998 99.993,14.998 Z"/>
<path fill-rule="evenodd"  stroke="rgb(29, 203, 164)" stroke-width="2px" stroke-linecap="round" stroke-linejoin="round" fill="none"
 d="M107.269,117.550 C106.518,118.140 105.479,118.142 104.726,117.556 C101.638,115.148 94.000,108.389 94.000,100.408 C94.000,93.553 99.373,87.996 106.000,87.996 C112.627,87.996 118.000,93.553 118.000,100.408 C118.000,108.318 110.355,115.125 107.269,117.550 ZM105.996,96.989 C104.342,96.989 103.002,98.333 103.002,99.990 C103.002,101.648 104.342,102.991 105.996,102.991 C107.649,102.991 108.989,101.648 108.989,99.990 C108.989,98.333 107.649,96.989 105.996,96.989 Z"/>
<path fill-rule="evenodd"  stroke="rgb(29, 203, 164)" stroke-width="2px" stroke-linecap="round" stroke-linejoin="round" fill="none"
 d="M9.000,1.998 C12.866,1.998 16.000,5.141 16.000,9.018 C16.000,13.492 11.540,17.342 9.740,18.714 C9.302,19.048 8.696,19.050 8.257,18.718 C6.455,17.356 2.000,13.533 2.000,9.018 C2.000,5.141 5.134,1.998 9.000,1.998 Z"/>
</svg>