<svg 
 xmlns="http://www.w3.org/2000/svg"
 xmlns:xlink="http://www.w3.org/1999/xlink"
 width="1045px" height="236px">
<path fill-rule="evenodd"  fill="rgb(255, 255, 255)"
 d="M1023.801,195.390 C1012.767,195.390 1002.627,204.288 1002.627,215.010 C1002.627,226.594 1012.767,235.532 1023.801,235.532 C1034.861,235.532 1045.001,226.594 1045.001,215.010 C1045.001,204.288 1034.861,195.390 1023.801,195.390 M44.337,14.232 C44.337,14.232 111.633,145.283 111.633,145.283 C115.714,153.182 119.233,160.745 122.202,167.950 C125.139,175.201 128.345,182.530 131.825,190.056 C131.825,190.056 133.057,190.056 133.057,190.056 C132.233,181.156 131.677,171.662 131.365,161.586 C131.066,151.510 130.924,141.336 130.924,131.049 C130.924,131.049 130.924,14.232 130.924,14.232 C130.924,14.232 165.788,14.232 165.788,14.232 C165.788,14.232 165.788,233.346 165.788,233.346 C165.788,233.346 119.597,233.346 119.597,233.346 C119.597,233.346 55.647,110.278 55.647,110.278 C52.198,103.967 48.572,96.745 44.798,88.630 C41.030,80.537 37.391,72.238 33.942,63.747 C33.942,63.747 32.710,63.747 32.710,63.747 C33.534,74.023 34.135,84.114 34.543,93.998 C34.963,103.864 35.156,113.666 35.156,123.357 C35.156,123.357 35.156,233.346 35.156,233.346 C35.156,233.346 -0.009,233.346 -0.009,233.346 C-0.009,233.346 -0.009,14.232 -0.009,14.232 C-0.009,14.232 44.337,14.232 44.337,14.232 ZM199.709,139.480 C199.709,115.737 206.055,97.944 218.687,86.153 C231.317,74.368 248.660,68.472 270.695,68.472 C314.532,68.472 336.446,92.391 336.446,140.196 C336.446,140.196 336.446,159.530 336.446,159.530 C336.446,159.530 237.032,159.530 237.032,159.530 C237.032,159.530 237.032,168.999 237.032,168.999 C237.032,193.895 248.251,206.344 270.695,206.344 C280.867,206.344 288.230,204.438 292.719,200.603 C297.188,196.739 299.634,192.037 300.068,186.493 C300.068,186.493 334.326,186.493 334.326,186.493 C332.066,201.913 326.050,214.033 316.268,222.809 C306.474,231.618 291.576,236.001 271.608,236.001 C223.680,236.001 199.709,212.346 199.709,165.001 C199.709,165.001 199.709,139.480 199.709,139.480 ZM300.981,133.126 C300.981,120.085 298.575,110.984 293.791,105.840 C288.989,100.703 281.090,98.123 270.063,98.123 C258.454,98.123 250.082,101.003 244.994,106.727 C239.898,112.471 237.344,121.240 237.344,133.126 C237.344,133.126 300.981,133.126 300.981,133.126 ZM410.907,29.363 C410.907,29.363 410.907,71.471 410.907,71.471 C410.907,71.471 444.571,71.471 444.571,71.471 C444.571,71.471 444.571,96.943 444.571,96.943 C444.571,96.943 410.907,96.943 410.907,96.943 C410.907,96.943 410.907,198.944 410.907,198.944 C410.907,205.477 413.774,208.723 419.470,208.723 C424.795,208.723 429.322,208.227 433.084,207.260 C436.852,206.259 441.403,204.687 446.710,202.497 C446.710,202.497 457.112,227.409 457.112,227.409 C452.208,229.987 436.723,236.001 419.170,236.001 C388.794,236.001 373.597,221.681 373.597,193.023 C373.597,193.023 373.597,96.943 373.597,96.943 C373.597,96.943 356.765,96.943 356.765,96.943 C356.765,96.943 356.765,71.471 356.765,71.471 C356.765,71.471 373.597,71.471 373.597,71.471 C373.597,71.471 373.597,41.963 373.597,41.963 C373.597,41.963 410.907,29.363 410.907,29.363 ZM518.463,233.346 C518.463,233.346 481.140,233.346 481.140,233.346 C481.140,233.346 481.140,84.817 481.140,84.817 C491.549,78.905 517.653,65.434 567.727,69.388 C567.727,69.388 567.727,101.713 567.727,101.713 C540.192,99.971 522.947,104.193 518.463,105.549 C518.463,105.549 518.463,233.346 518.463,233.346 ZM840.896,113.237 C843.247,96.402 849.785,68.771 906.972,68.771 C958.222,68.771 965.285,93.508 967.545,100.802 C969.779,108.132 970.904,116.813 970.904,126.891 C970.904,126.891 970.904,222.970 970.904,222.970 C949.935,230.630 939.883,236.001 890.766,236.001 C872.389,236.001 858.801,232.105 849.912,224.294 C841.050,216.469 836.605,204.006 836.605,186.788 C836.605,186.788 836.605,179.955 836.605,179.955 C836.605,163.369 841.050,151.606 849.912,144.699 C858.801,137.797 872.389,134.315 890.766,134.315 C903.602,134.315 913.332,134.801 919.973,135.775 C926.589,136.792 931.340,137.797 934.200,138.760 C934.200,138.760 934.200,121.555 934.200,121.555 C934.200,113.658 932.004,107.684 927.611,103.628 C923.243,99.572 916.041,97.561 906.053,97.561 C896.859,97.561 889.681,98.698 884.470,100.959 C879.286,103.209 876.169,107.319 875.148,113.237 C875.148,113.237 840.896,113.237 840.896,113.237 ZM873.615,191.837 C873.615,202.680 879.222,208.127 890.447,208.127 C903.308,208.127 912.975,207.754 919.514,206.962 C926.027,206.171 930.931,205.082 934.200,203.694 C934.200,203.694 934.200,164.558 934.200,164.558 C930.114,163.369 924.724,162.380 917.968,161.586 C911.239,160.794 902.069,160.420 890.447,160.420 C879.222,160.420 873.615,165.128 873.615,174.655 C873.615,174.655 873.615,191.837 873.615,191.837 ZM632.219,233.346 C632.219,233.346 594.916,233.346 594.916,233.346 C594.916,233.346 594.916,71.464 594.916,71.464 C594.916,71.464 632.219,71.464 632.219,71.464 C632.219,71.464 632.219,233.346 632.219,233.346 ZM613.562,4.605 C602.527,4.605 592.387,13.505 592.387,24.212 C592.387,35.809 602.527,44.748 613.562,44.748 C624.609,44.748 634.749,35.809 634.749,24.212 C634.749,13.505 624.609,4.605 613.562,4.605 M807.730,199.239 C805.776,194.118 802.775,188.767 798.701,183.235 C798.701,183.235 765.548,140.742 763.531,138.760 C763.531,138.760 763.531,137.893 763.531,137.893 C765.548,136.705 780.362,125.217 787.067,119.499 C794.615,113.149 800.017,106.572 803.299,99.751 C806.555,92.949 808.190,85.404 808.190,77.093 C808.190,77.093 808.190,71.761 808.190,71.761 C808.190,71.761 772.086,71.761 772.086,71.761 C772.086,71.761 772.086,80.636 772.086,80.636 C772.086,87.559 769.545,93.208 764.451,97.561 C764.451,97.561 727.440,129.854 727.440,129.854 C721.515,134.997 717.070,138.906 714.119,141.582 C711.144,144.257 708.871,146.557 707.237,148.553 C707.237,148.553 707.237,0.002 707.237,0.002 C707.237,0.002 669.907,12.168 669.907,12.168 C669.907,12.168 669.907,233.330 669.907,233.330 C669.907,233.330 707.237,233.330 707.237,233.330 C707.237,233.330 707.237,183.767 707.237,183.767 C712.243,180.526 717.274,176.960 722.383,172.849 C727.772,168.492 733.341,163.763 739.062,158.629 C739.662,160.604 741.399,163.467 744.245,167.254 C747.081,170.994 750.861,176.318 755.575,183.235 C755.575,183.235 767.795,201.619 767.795,201.619 C771.869,207.360 773.926,213.476 773.926,220.009 C773.926,220.009 773.926,233.330 773.926,233.330 C773.926,233.330 810.629,233.330 810.629,233.330 C810.629,233.330 810.629,217.619 810.629,217.619 C810.629,210.506 809.659,204.401 807.730,199.239 "/>
</svg>