<svg 
 xmlns="http://www.w3.org/2000/svg"
 xmlns:xlink="http://www.w3.org/1999/xlink"
 width="1045px" height="236px">
<path fill-rule="evenodd"  fill="rgb(255, 255, 255)"
 d="M1023.801,195.390 C1012.766,195.390 1002.627,204.288 1002.627,215.009 C1002.627,226.594 1012.766,235.532 1023.801,235.532 C1034.860,235.532 1045.001,226.594 1045.001,215.009 C1045.001,204.288 1034.860,195.390 1023.801,195.390 M44.337,14.231 C44.337,14.231 111.633,145.282 111.633,145.282 C115.714,153.182 119.232,160.745 122.202,167.950 C125.139,175.201 128.345,182.530 131.825,190.055 C131.825,190.055 133.057,190.055 133.057,190.055 C132.233,181.156 131.677,171.662 131.365,161.586 C131.066,151.510 130.924,141.336 130.924,131.049 C130.924,131.049 130.924,14.231 130.924,14.231 C130.924,14.231 165.788,14.231 165.788,14.231 C165.788,14.231 165.788,233.346 165.788,233.346 C165.788,233.346 119.596,233.346 119.596,233.346 C119.596,233.346 55.647,110.278 55.647,110.278 C52.198,103.966 48.571,96.745 44.798,88.629 C41.030,80.536 37.391,72.238 33.942,63.747 C33.942,63.747 32.710,63.747 32.710,63.747 C33.534,74.023 34.135,84.113 34.543,93.998 C34.963,103.864 35.156,113.666 35.156,123.357 C35.156,123.357 35.156,233.346 35.156,233.346 C35.156,233.346 -0.010,233.346 -0.010,233.346 C-0.010,233.346 -0.010,14.231 -0.010,14.231 C-0.010,14.231 44.337,14.231 44.337,14.231 ZM199.709,139.480 C199.709,115.737 206.055,97.944 218.686,86.153 C231.317,74.368 248.660,68.471 270.695,68.471 C314.532,68.471 336.446,92.391 336.446,140.196 C336.446,140.196 336.446,159.530 336.446,159.530 C336.446,159.530 237.032,159.530 237.032,159.530 C237.032,159.530 237.032,168.999 237.032,168.999 C237.032,193.895 248.251,206.344 270.695,206.344 C280.867,206.344 288.230,204.438 292.719,200.602 C297.188,196.738 299.634,192.037 300.068,186.493 C300.068,186.493 334.326,186.493 334.326,186.493 C332.066,201.913 326.050,214.033 316.268,222.808 C306.473,231.618 291.575,236.001 271.608,236.001 C223.679,236.001 199.709,212.346 199.709,165.000 C199.709,165.000 199.709,139.480 199.709,139.480 ZM300.981,133.126 C300.981,120.085 298.574,110.983 293.791,105.840 C288.989,100.703 281.090,98.123 270.063,98.123 C258.454,98.123 250.082,101.003 244.994,106.727 C239.898,112.470 237.344,121.240 237.344,133.126 C237.344,133.126 300.981,133.126 300.981,133.126 ZM410.907,29.363 C410.907,29.363 410.907,71.471 410.907,71.471 C410.907,71.471 444.571,71.471 444.571,71.471 C444.571,71.471 444.571,96.943 444.571,96.943 C444.571,96.943 410.907,96.943 410.907,96.943 C410.907,96.943 410.907,198.944 410.907,198.944 C410.907,205.477 413.773,208.723 419.470,208.723 C424.795,208.723 429.322,208.227 433.083,207.260 C436.851,206.259 441.403,204.687 446.710,202.497 C446.710,202.497 457.112,227.408 457.112,227.408 C452.208,229.987 436.723,236.001 419.169,236.001 C388.794,236.001 373.597,221.681 373.597,193.022 C373.597,193.022 373.597,96.943 373.597,96.943 C373.597,96.943 356.765,96.943 356.765,96.943 C356.765,96.943 356.765,71.471 356.765,71.471 C356.765,71.471 373.597,71.471 373.597,71.471 C373.597,71.471 373.597,41.963 373.597,41.963 C373.597,41.963 410.907,29.363 410.907,29.363 ZM518.463,233.346 C518.463,233.346 481.140,233.346 481.140,233.346 C481.140,233.346 481.140,84.817 481.140,84.817 C491.549,78.905 517.653,65.434 567.727,69.388 C567.727,69.388 567.727,101.713 567.727,101.713 C540.192,99.971 522.946,104.193 518.463,105.549 C518.463,105.549 518.463,233.346 518.463,233.346 ZM840.896,113.237 C843.246,96.402 849.785,68.771 906.972,68.771 C958.222,68.771 965.285,93.508 967.544,100.802 C969.779,108.132 970.904,116.813 970.904,126.891 C970.904,126.891 970.904,222.970 970.904,222.970 C949.935,230.630 939.883,236.001 890.766,236.001 C872.389,236.001 858.801,232.105 849.912,224.294 C841.050,216.469 836.605,204.006 836.605,186.787 C836.605,186.787 836.605,179.955 836.605,179.955 C836.605,163.369 841.050,151.606 849.912,144.699 C858.801,137.797 872.389,134.315 890.766,134.315 C903.602,134.315 913.332,134.801 919.973,135.775 C926.589,136.792 931.340,137.797 934.200,138.760 C934.200,138.760 934.200,121.555 934.200,121.555 C934.200,113.658 932.004,107.684 927.610,103.628 C923.242,99.572 916.041,97.560 906.053,97.560 C896.858,97.560 889.681,98.697 884.470,100.959 C879.285,103.209 876.169,107.320 875.148,113.237 C875.148,113.237 840.896,113.237 840.896,113.237 ZM873.615,191.837 C873.615,202.680 879.221,208.127 890.447,208.127 C903.307,208.127 912.975,207.754 919.513,206.963 C926.026,206.171 930.930,205.081 934.200,203.694 C934.200,203.694 934.200,164.558 934.200,164.558 C930.113,163.369 924.724,162.380 917.968,161.586 C911.239,160.794 902.068,160.420 890.447,160.420 C879.221,160.420 873.615,165.127 873.615,174.655 C873.615,174.655 873.615,191.837 873.615,191.837 ZM632.219,233.346 C632.219,233.346 594.916,233.346 594.916,233.346 C594.916,233.346 594.916,71.463 594.916,71.463 C594.916,71.463 632.219,71.463 632.219,71.463 C632.219,71.463 632.219,233.346 632.219,233.346 ZM613.562,4.605 C602.527,4.605 592.387,13.505 592.387,24.211 C592.387,35.809 602.527,44.748 613.562,44.748 C624.608,44.748 634.749,35.809 634.749,24.211 C634.749,13.505 624.608,4.605 613.562,4.605 M807.729,199.239 C805.776,194.118 802.775,188.767 798.701,183.235 C798.701,183.235 765.547,140.742 763.530,138.760 C763.530,138.760 763.530,137.893 763.530,137.893 C765.547,136.705 780.362,125.217 787.067,119.499 C794.615,113.149 800.016,106.572 803.299,99.751 C806.555,92.949 808.190,85.403 808.190,77.093 C808.190,77.093 808.190,71.761 808.190,71.761 C808.190,71.761 772.086,71.761 772.086,71.761 C772.086,71.761 772.086,80.636 772.086,80.636 C772.086,87.559 769.545,93.208 764.450,97.560 C764.450,97.560 727.440,129.854 727.440,129.854 C721.515,134.997 717.069,138.906 714.119,141.582 C711.144,144.256 708.871,146.557 707.236,148.553 C707.236,148.553 707.236,0.001 707.236,0.001 C707.236,0.001 669.907,12.168 669.907,12.168 C669.907,12.168 669.907,233.330 669.907,233.330 C669.907,233.330 707.236,233.330 707.236,233.330 C707.236,233.330 707.236,183.767 707.236,183.767 C712.243,180.526 717.274,176.959 722.383,172.849 C727.772,168.492 733.340,163.763 739.062,158.629 C739.662,160.604 741.399,163.467 744.245,167.254 C747.081,170.993 750.861,176.318 755.575,183.235 C755.575,183.235 767.795,201.619 767.795,201.619 C771.869,207.360 773.926,213.476 773.926,220.009 C773.926,220.009 773.926,233.330 773.926,233.330 C773.926,233.330 810.629,233.330 810.629,233.330 C810.629,233.330 810.629,217.619 810.629,217.619 C810.629,210.506 809.659,204.401 807.729,199.239 "/>
</svg>