<svg 
 xmlns="http://www.w3.org/2000/svg"
 xmlns:xlink="http://www.w3.org/1999/xlink"
 width="121px" height="121px">
<path fill-rule="evenodd"  stroke="rgb(29, 203, 164)" stroke-width="2px" stroke-linecap="round" stroke-linejoin="round" fill="none"
 d="M34.274,95.604 C34.274,95.604 95.597,34.296 95.597,34.296 C96.293,33.600 97.298,33.328 98.256,33.554 C103.477,34.785 109.211,33.358 113.302,29.269 C118.062,24.511 119.214,17.528 116.768,11.716 C116.768,11.716 108.975,19.507 108.975,19.507 C107.869,20.612 106.060,20.612 104.955,19.507 C104.955,19.507 100.507,15.061 100.507,15.061 C99.404,13.957 99.404,12.169 100.507,11.067 C100.507,11.067 108.313,3.263 108.313,3.263 C102.372,0.764 95.208,2.023 90.445,7.046 C86.410,11.302 85.175,17.356 86.754,22.694 C87.049,23.695 86.794,24.774 86.056,25.512 C86.056,25.512 25.488,86.066 25.488,86.066 C24.750,86.804 23.670,87.059 22.669,86.763 C17.329,85.185 11.274,86.420 7.017,90.453 C1.991,95.215 0.733,102.377 3.232,108.316 C3.232,108.316 11.026,100.525 11.026,100.525 C12.131,99.420 13.940,99.420 15.045,100.525 C15.045,100.525 19.494,104.971 19.494,104.971 C20.597,106.074 20.597,107.863 19.493,108.966 C19.493,108.966 11.688,116.769 11.688,116.769 C17.501,119.214 24.486,118.062 29.246,113.303 C33.337,109.214 34.763,103.482 33.532,98.262 C33.306,97.305 33.578,96.300 34.274,95.604 Z"/>
<path fill-rule="evenodd"  stroke="rgb(29, 203, 164)" stroke-width="2px" stroke-linecap="round" stroke-linejoin="round" fill="none"
 d="M88.409,72.005 C88.409,72.005 114.696,98.902 114.696,98.902 C119.029,103.325 119.094,110.431 114.840,114.774 C110.585,119.116 103.623,119.051 99.289,114.627 C99.289,114.627 73.003,87.730 73.003,87.730 "/>
<path fill-rule="evenodd"  stroke="rgb(29, 203, 164)" stroke-width="2px" stroke-linecap="round" stroke-linejoin="round" fill="none"
 d="M67.575,90.205 C67.575,90.205 90.214,67.561 90.214,67.561 "/>
<path fill-rule="evenodd"  stroke="rgb(29, 203, 164)" stroke-width="2px" stroke-linecap="round" stroke-linejoin="round" fill="none"
 d="M106.500,104.000 C107.881,104.000 109.000,105.119 109.000,106.500 C109.000,107.881 107.881,109.000 106.500,109.000 C105.119,109.000 104.000,107.881 104.000,106.500 C104.000,105.119 105.119,104.000 106.500,104.000 Z"/>
<path fill-rule="evenodd"  stroke="rgb(29, 203, 164)" stroke-width="2px" stroke-linecap="round" stroke-linejoin="round" fill="none"
 d="M81.985,74.973 C81.985,74.973 76.413,69.392 68.980,61.947 M59.036,51.986 C45.801,38.730 31.759,24.665 31.759,24.665 C30.224,23.129 29.498,20.988 29.823,18.958 C29.823,18.958 30.215,16.517 30.215,16.517 C30.412,15.287 29.836,13.999 28.755,13.254 C28.755,13.254 12.559,2.382 12.559,2.382 C11.659,1.780 10.465,1.894 9.705,2.654 C9.705,2.654 2.663,9.700 2.663,9.700 C1.903,10.460 1.790,11.656 2.392,12.556 C2.392,12.556 13.331,28.796 13.331,28.796 C14.074,29.877 15.362,30.452 16.592,30.253 C16.592,30.253 19.033,29.857 19.033,29.857 C21.064,29.529 23.204,30.253 24.738,31.788 C24.738,31.788 38.791,45.840 52.028,59.078 M61.696,68.745 C69.252,76.303 74.950,82.001 74.950,82.001 "/>
<path fill-rule="evenodd"  stroke="rgb(29, 203, 164)" stroke-width="2px" stroke-linecap="round" stroke-linejoin="round" fill="none"
 d="M18.000,23.000 C18.000,23.000 23.000,18.000 23.000,18.000 "/>
</svg>