<svg 
 xmlns="http://www.w3.org/2000/svg"
 xmlns:xlink="http://www.w3.org/1999/xlink"
 width="121px" height="121px">
<path fill-rule="evenodd"  stroke="rgb(29, 203, 164)" stroke-width="2px" stroke-linecap="round" stroke-linejoin="round" fill="none"
 d="M113.294,70.812 C113.294,70.812 108.829,71.581 108.829,71.581 C106.765,71.937 105.098,73.414 104.412,75.392 C103.799,77.159 103.083,78.876 102.273,80.540 C101.352,82.428 101.483,84.657 102.695,86.374 C102.695,86.374 105.236,89.974 105.236,89.974 C106.827,92.228 106.564,95.301 104.613,97.252 C104.613,97.252 97.252,104.613 97.252,104.613 C95.301,106.564 92.228,106.827 89.974,105.236 C89.974,105.236 86.374,102.695 86.374,102.695 C84.657,101.483 82.428,101.352 80.540,102.273 C78.876,103.083 77.158,103.799 75.392,104.412 C73.413,105.098 71.937,106.765 71.581,108.829 C71.581,108.829 70.811,113.294 70.811,113.294 C70.343,116.013 67.984,118.000 65.225,118.000 C65.225,118.000 54.775,118.000 54.775,118.000 C52.016,118.000 49.657,116.013 49.189,113.294 C49.189,113.294 48.419,108.829 48.419,108.829 C48.063,106.765 46.587,105.098 44.608,104.412 C42.842,103.799 41.124,103.083 39.461,102.273 C37.572,101.352 35.343,101.483 33.626,102.695 C33.626,102.695 30.026,105.236 30.026,105.236 C27.772,106.827 24.699,106.564 22.748,104.613 C22.748,104.613 15.387,97.252 15.387,97.252 C13.436,95.301 13.173,92.228 14.765,89.974 C14.765,89.974 17.306,86.374 17.306,86.374 C18.517,84.657 18.648,82.428 17.728,80.540 C16.917,78.876 16.201,77.159 15.589,75.392 C14.902,73.414 13.235,71.937 11.171,71.581 C11.171,71.581 6.706,70.812 6.706,70.812 C3.987,70.343 2.000,67.984 2.000,65.225 C2.000,65.225 2.000,54.776 2.000,54.776 C2.000,52.016 3.987,49.658 6.706,49.189 C6.706,49.189 11.171,48.419 11.171,48.419 C13.235,48.063 14.902,46.587 15.589,44.608 C16.201,42.842 16.917,41.124 17.728,39.461 C18.648,37.572 18.517,35.343 17.306,33.626 C17.306,33.626 14.765,30.027 14.765,30.027 C13.173,27.772 13.436,24.700 15.387,22.748 C15.387,22.748 22.748,15.388 22.748,15.388 C24.699,13.436 27.772,13.173 30.026,14.764 C30.026,14.764 33.626,17.306 33.626,17.306 C35.343,18.517 37.572,18.648 39.461,17.728 C41.124,16.917 42.842,16.202 44.608,15.589 C46.587,14.902 48.063,13.235 48.419,11.172 C48.419,11.172 49.189,6.706 49.189,6.706 C49.657,3.987 52.016,2.000 54.775,2.000 C54.775,2.000 65.225,2.000 65.225,2.000 C67.984,2.000 70.343,3.987 70.811,6.706 C70.811,6.706 71.581,11.172 71.581,11.172 C71.937,13.235 73.413,14.902 75.392,15.589 C77.158,16.202 78.876,16.917 80.539,17.728 C82.428,18.648 84.657,18.517 86.374,17.306 C86.374,17.306 89.974,14.764 89.974,14.764 C92.228,13.173 95.301,13.436 97.252,15.388 C97.252,15.388 104.613,22.748 104.613,22.748 C106.564,24.700 106.827,27.772 105.236,30.027 C105.236,30.027 102.695,33.626 102.695,33.626 C101.483,35.343 101.352,37.572 102.273,39.461 C103.083,41.124 103.799,42.842 104.412,44.608 C105.098,46.587 106.765,48.063 108.829,48.419 C108.829,48.419 113.294,49.189 113.294,49.189 C116.013,49.658 118.000,52.016 118.000,54.776 C118.000,54.776 118.000,65.225 118.000,65.225 C118.000,67.984 116.013,70.343 113.294,70.812 ZM60.000,25.000 C40.670,25.000 25.000,40.670 25.000,60.000 C25.000,79.330 40.670,95.000 60.000,95.000 C79.330,95.000 95.000,79.330 95.000,60.000 C95.000,40.670 79.330,25.000 60.000,25.000 ZM60.000,71.000 C53.925,71.000 49.000,66.075 49.000,60.000 C49.000,53.925 53.925,49.000 60.000,49.000 C66.075,49.000 71.000,53.925 71.000,60.000 C71.000,66.075 66.075,71.000 60.000,71.000 Z"/>
</svg>