<svg 
 xmlns="http://www.w3.org/2000/svg"
 xmlns:xlink="http://www.w3.org/1999/xlink"
 width="111px" height="121px">
<path fill-rule="evenodd"  stroke="rgb(29, 203, 164)" stroke-width="2px" stroke-linecap="round" stroke-linejoin="round" fill="none"
 d="M52.000,110.000 C24.386,110.000 2.000,87.614 2.000,60.000 C2.000,32.386 24.386,10.000 52.000,10.000 C79.614,10.000 102.000,32.386 102.000,60.000 C102.000,87.614 79.614,110.000 52.000,110.000 ZM52.000,55.000 C49.239,55.000 47.000,57.239 47.000,60.000 C47.000,62.762 49.239,65.000 52.000,65.000 C54.762,65.000 57.000,62.762 57.000,60.000 C57.000,57.239 54.762,55.000 52.000,55.000 Z"/>
<path fill-rule="evenodd"  stroke="rgb(29, 203, 164)" stroke-width="2px" stroke-linecap="round" stroke-linejoin="round" fill="none"
 d="M86.000,60.000 C86.000,60.000 90.000,60.000 90.000,60.000 M14.000,60.000 C14.000,60.000 18.000,60.000 18.000,60.000 M52.000,98.001 C52.000,98.001 52.000,95.000 52.000,95.000 "/>
<path fill-rule="evenodd"  stroke="rgb(29, 203, 164)" stroke-width="2px" stroke-linecap="round" stroke-linejoin="round" fill="none"
 d="M52.000,22.000 C52.000,22.000 52.000,55.000 52.000,55.000 "/>
<path fill-rule="evenodd"  stroke="rgb(29, 203, 164)" stroke-width="2px" stroke-linecap="round" stroke-linejoin="round" fill="none"
 d="M72.000,40.000 C72.000,40.000 56.000,56.000 56.000,56.000 "/>
<path fill-rule="evenodd"  stroke="rgb(29, 203, 164)" stroke-width="2px" stroke-linecap="round" stroke-linejoin="round" fill="none"
 d="M76.000,2.000 C76.000,2.000 76.000,16.000 76.000,16.000 M28.000,2.000 C28.000,2.000 28.000,16.000 28.000,16.000 "/>
<path fill-rule="evenodd"  stroke="rgb(29, 203, 164)" stroke-width="2px" stroke-linecap="round" stroke-linejoin="round" fill="none"
 d="M76.000,104.000 C76.000,104.000 76.000,118.000 76.000,118.000 M28.000,104.000 C28.000,104.000 28.000,118.000 28.000,118.000 "/>
<path fill-rule="evenodd"  stroke="rgb(29, 203, 164)" stroke-width="2px" stroke-linecap="round" stroke-linejoin="round" fill="none"
 d="M101.000,50.000 C101.000,50.000 105.000,50.000 105.000,50.000 C106.657,50.000 108.000,51.343 108.000,53.000 C108.000,53.000 108.000,67.001 108.000,67.001 C108.000,68.657 106.657,70.000 105.000,70.000 C105.000,70.000 101.000,70.000 101.000,70.000 "/>
</svg>